<?xml version="1.0" encoding="utf-8"?>
<!-- Generator: Adobe Illustrator 22.1.0, SVG Export Plug-In . SVG Version: 6.00 Build 0)  -->
<svg version="1.1" id="Layer_1" xmlns="http://www.w3.org/2000/svg" width="120" height="120"
	xmlns:xlink="http://www.w3.org/1999/xlink" x="0px" y="0px"
	viewBox="0 0 500 185" style="enable-background:new 0 0 500 185;" xml:space="preserve">
<style type="text/css">
	.st0{fill:#FFFFFF;}
	.st1{fill:url(#SVGID_1_);}
	.st2{fill:url(#SVGID_2_);}
	.st3{fill:url(#SVGID_3_);}
	.st4{fill:url(#SVGID_4_);}
	.st5{fill:url(#SVGID_5_);}
	.st6{fill:url(#SVGID_6_);}
	.st7{fill:url(#SVGID_7_);}
	.st8{fill:url(#SVGID_8_);}
	.st9{fill:url(#SVGID_9_);}
	.st10{fill:url(#SVGID_10_);}
	.st11{fill:url(#SVGID_11_);}
	.st12{fill:url(#SVGID_12_);}
	.st13{fill:url(#SVGID_13_);}
	.st14{fill:url(#SVGID_14_);}
	.st15{fill:url(#SVGID_15_);}
	.st16{fill:url(#SVGID_16_);}
	.st17{fill:url(#SVGID_17_);}
	.st18{fill:url(#SVGID_18_);}
	.st19{fill:url(#SVGID_19_);}
	.st20{fill:url(#SVGID_20_);}
	.st21{fill:url(#SVGID_21_);}
	.st22{fill:url(#SVGID_22_);}
	.st23{fill:none;stroke:#000000;stroke-width:2;stroke-miterlimit:10;}
	.st24{clip-path:url(#SVGID_24_);}
	.st25{fill:url(#SVGID_25_);}
	.st26{fill:url(#SVGID_26_);}
</style>
<g>
	<g>
		<g>
			<path d="M148.5,143.8l-20.2-28.9c-0.8,0.1-2.1,0.1-3.8,0.1h-22.3v28.8H83.9V45h40.6c8.6,0,16,1.4,22.4,4.2
				c6.4,2.8,11.2,6.9,14.6,12.1c3.4,5.3,5.1,11.5,5.1,18.8c0,7.4-1.8,13.8-5.4,19.2c-3.6,5.4-8.8,9.4-15.6,12l22.7,32.5H148.5z
				 M141.9,65.6c-4.1-3.4-10.2-5.1-18.2-5.1h-21.5v39.4h21.5c8,0,14.1-1.7,18.2-5.2c4.1-3.4,6.2-8.3,6.2-14.6
				C148.1,73.9,146,69,141.9,65.6z"/>
			<path d="M378.7,121h-49.4l-9.7,22.9h-18.9L345.1,45h18.1l44.6,98.8h-19.2L378.7,121z M372.7,106.6L354,63.4l-18.5,43.2H372.7z"/>
			<path d="M479.4,143.8l-20.2-28.9c-0.8,0.1-2.1,0.1-3.8,0.1h-22.3v28.8h-18.3V45h40.6c8.6,0,16,1.4,22.4,4.2
				c6.4,2.8,11.2,6.9,14.6,12.1c3.4,5.3,5.1,11.5,5.1,18.8c0,7.4-1.8,13.8-5.4,19.2c-3.6,5.4-8.8,9.4-15.6,12l22.7,32.5H479.4z
				 M472.7,65.6c-4.1-3.4-10.2-5.1-18.2-5.1h-21.5v39.4h21.5c8,0,14.1-1.7,18.2-5.2c4.1-3.4,6.2-8.3,6.2-14.6
				C478.9,73.9,476.9,69,472.7,65.6z"/>
		</g>
		<g>
			<linearGradient id="SVGID_1_" gradientUnits="userSpaceOnUse" x1="67.8371" y1="132.1604" x2="13.3962" y2="37.866">
				<stop  offset="0" style="stop-color:#FCB532"/>
				<stop  offset="1" style="stop-color:#F15A65"/>
			</linearGradient>
			<path class="st1" d="M8.8,166.2C25.1,148.5,87.5,48.5,90.3,34.7c-15.5,23.3-31,46.7-47.3,71.1c-1.9-20.9-3.7-40.6-5.5-60.2
				c-11.2,0-21.4,0-32,0c0,0,0,0,0,0H0l6.4,9.9c3.9,29.4,7.9,58.8,11.6,88.2c0.3,2.7-0.6,5.9-1.8,8.5C14.1,157,11.3,161.6,8.8,166.2
				z"/>
			<linearGradient id="SVGID_2_" gradientUnits="userSpaceOnUse" x1="95.9443" y1="136.771" x2="44.7926" y2="48.1736">
				<stop  offset="0" style="stop-color:#FCB532"/>
				<stop  offset="1" style="stop-color:#F15A65"/>
			</linearGradient>
			<path class="st2" d="M12.5,184.9C54.3,125.3,93,63.7,128.2,0C86.4,59.6,47.8,121.2,12.5,184.9z"/>
			<linearGradient id="SVGID_3_" gradientUnits="userSpaceOnUse" x1="104.1743" y1="120.8003" x2="67.3364" y2="56.9951">
				<stop  offset="0" style="stop-color:#FCB532"/>
				<stop  offset="1" style="stop-color:#F15A65"/>
			</linearGradient>
			<path class="st3" d="M127,22.5c-30.6,42.9-58.2,86.9-82.5,132.7C58.4,141.1,125.6,33.1,127,22.5z"/>
		</g>
		<g>
			<path class="st0" d="M195.1,82.8l2.7-17.6l8-5.9l6.3-10.5l9.5-1.2l10-1.5h21.5l20.7,8.3l6.1,5.1l3.9,8.3l2,9.3
				c0,0,1.2,5.6,1.2,6.6s-1.5,18.8-1.7,19.8c-0.2,1-7.1,14.9-7.1,14.9s-6.6,7.1-7.1,8.5c-0.5,1.5-11,22-11,22l-8.2,4.1l-18.8,0.1
				l-9.8-4.8l-2.6-7L195.1,114v-13.4L194,89.5L195.1,82.8z"/>
			<g id="ShoSho_4_">
				<linearGradient id="SVGID_4_" gradientUnits="userSpaceOnUse" x1="242.4017" y1="153.2141" x2="242.4017" y2="31.6998">
					<stop  offset="0" style="stop-color:#FCB532"/>
					<stop  offset="1" style="stop-color:#F15A65"/>
				</linearGradient>
				<path class="st4" d="M260,33.7c-3.4,2.5-7.6,4.2-10.4,7.3c0.2,0.4,0.8,0.3,0.7-0.3c3.8-0.9,7.8-3,12.1-4c0.1,0.3,0.8,0,0.9,0.3
					c0.3,0,0.3-0.4,0.4-0.6c3.7-0.7,6.1,0.3,9.7,1.9c5,2.2,10.2,5.6,13.8,9.3c-3.7,1-7.5,1.9-10.4,3.5c4.8,0.2,9.8,0.3,15.6,0.9
					c5.6,5.6,10.6,12.6,13.2,20.7c-3.8-1.2-6.5-2.6-10.9-2.9c3.3,2.7,7.1,4.9,10.6,7.8c0.8,0.6,2,1.3,2.5,1.9
					c0.9,1.1,1.3,5.2,1.5,7.3c0.4,5.1-0.1,11.7-1,16.3c-3.1-2-5.4-4.8-9.4-5.9c2.7,3.9,5.3,8.5,7.3,13.4c-0.8,3.2-1.9,6.1-3.7,8.4
					c-1.3,3.1-3,5.9-5.3,8.1c-1.6-2.4-3.3-4.8-5.6-6.5c-0.1,3.3,3.1,7.3,1.9,11.2c-0.4,1.3-2.6,2.4-3.8,3.7
					c-1.5,1.5-3.5,3.5-5.4,4.4c-0.4-3.2-0.3-6.5-1.5-9.1c-1.3,4.2-2,9-3.7,12.9c-2.7,1.4-5.6,3.4-8.7,4c0.6-3.7,1.2-6.9,1.2-10.1
					c-2,3.5-4.3,7.9-6.8,11.2c-1.3,1.8-1.5,1.8-4.1,2.5c-2.9,0.8-5.8,1.9-8.8,1.8c0.5-1.1,1.3-0.9,1.9-1.3c4.3-2.8,8.2-7.3,7.2-14.1
					c-0.3-2.2-0.7-6-1.3-8.2c-0.2-0.8-0.7-1.3-0.6-1.9c0.2-1.3,2-3,2.6-4.1c0.9-1.5,1.6-3.7,2.6-5.4c1-1.6,2.2-2.7,4.1-0.9
					c0.8-2.3,0.7-6,0.7-9.6c1.4,0.4,2.3,1.2,3.7,1.5c0.9-2.8,1.2-6,1.5-8.5c1.2,0.5,2.2,1.2,3.4,1.6c1.1-2.1,0.6-5.1,1-7.5
					c1.3,0.3,2.3,0.9,3.4,1.5c-0.5-4.4-2.4-8.2-2.8-12.2c1.3,0.2,2.2,0.9,3.2,1.3C280,77,276,69.9,265.9,69.7
					c-5.2-0.1-9.9-1.5-11.3-6.6c2.9-1.5,4.4-4.6,9-4.1c-0.6,2-2.9,2.3-4,3.8c2.1,0.7,4.3,0,6.2,0.3c3,0.5,5.4,3,7.6,4.8
					c2.1,1.8,3.9,3.5,5.6,5.1C277.7,61,266.1,55,255.2,52.4c-3.7-0.9-8.9,2.7-13.4,2.8c-1-0.5-4.8-1.9-7.1-2.5
					c-4.7-1.2-8,0.5-12.2,2.2c-3.8,1.6-7.7,3.2-10.6,6.2c-2.4,2.4-5.1,7.7-5.6,11.8c1,0.1,1.2-1.1,1.8-1.8c1.9-2.1,5.1-4.5,7.8-6.2
					c1.2-0.7,2.1-1.6,3.4-1.8c2-0.2,4.6,0.4,6.8-0.1c-0.7-1.8-3.4-1.7-4.1-3.7c2.6-0.9,4.7,0.7,6.8,2.2c0.5,0.4,2,1.6,2.1,2.1
					c0.1,1-1.2,1.5-1.2,2.5c-2.1,2.3-5.6,3.5-9.6,3.7c-7.4,0.3-11.7,3.5-15,8.7c-0.3,2.2-1.9,4.1-2.5,6.5c1.4-0.1,1.9-1.1,3.2-1.3
					c-0.5,4-2.3,8-3.1,12.2c1.8,0.1,1.7-1.2,3.4-1.3c0.3,2.3,0.4,4.8,0.6,7.5c1.3-0.1,2.1-0.7,3.1-1.2c1.7,1.6,1.1,5.6,1.9,8.2
					c1.5-0.2,2.4-0.9,3.5-1.5c0.7,2.7,0.4,6.5,0.9,9.4c2.1-0.6,2.7-1.7,3.8,0.6c1.3,2.6,4.4,6.6,5.6,9.3c0.6,1.2,0,1.4-0.3,2.5
					c-0.8,2.9-1.7,6.8-1.6,9.8c0.2,7.8,4.3,10.7,9.6,14.1c-3.2-0.2-5.3-0.9-7.9-1.6c-3-0.8-4.4-0.8-5.9-2.9
					c-0.8-1.2-1.1-2.9-2.5-3.5c-0.8-2-1.5-4-2.9-5.3c0-0.8-0.3-1.5-0.6-2.1c-0.8,3.4,0.4,6.4,0.7,10.4c-2.9-1.7-5.8-2.5-8.4-4.4
					c-1.5-3.7-3.1-9-3.5-13.1c-1.6,2.3-1.6,6.3-1.9,9.1c-3.7-1.7-5.8-4.9-8.8-7.2c-1-3.8,0.6-8.7,2.1-12.1c-1.2,0.8-2.3,1.3-3.4,2.6
					c-1.5,1.7-2.3,5.6-4.4,2.4c-1.6-2.4-2.9-4.3-4.1-6.8c-0.3-0.6-0.3-1.5-0.7-2.2c-0.6-1-2.3-4.2-2.2-5.7c0.1-0.8,0.8-1.6,1-2.2
					c1.7-4.6,4.1-8.3,6.6-11.5c-4,1.1-6.7,3.6-9.6,5.9c-1.7-4.3-1.4-9.8-1-14.8c0.3-3.8,0.4-8.1,3.1-10.1c3.7-2.8,8.1-5.7,12.2-8.2
					c-4.2-0.2-7.7,1.7-11.6,2.9c2.9-8.4,7.8-14.8,13.1-20.7c4.3-0.5,9.9-0.6,14.3-1c0.5,0.3,1.3,0.7,2.1,0.3c-3.2-2-7-2.6-10.9-3.7
					c5.1-5.3,12.4-8.4,19.4-11.8c7.2,1.1,13.3,3.1,19.1,5.6c-2.7-3.5-7.4-5.2-11-7.8C235.5,31.1,250.1,31,260,33.7z"/>
				<linearGradient id="SVGID_5_" gradientUnits="userSpaceOnUse" x1="242.6262" y1="141.0445" x2="242.6262" y2="68.7386">
					<stop  offset="0" style="stop-color:#FCB532"/>
					<stop  offset="1" style="stop-color:#F15A65"/>
				</linearGradient>
				<path class="st5" d="M261.4,77.8c-2.7-0.5-4.8-2.7-7.9-2.5c-2.9,0.2-5.4,2.1-7.9,3.1c-0.7,3.2,1.7,4.5,4.1,5.1
					c1.7,0.5,3.7,1,5.9,1.9c4.4,1.8,11.8,2.7,10,9.4c-0.2,0.8-0.6,1.7-0.9,2.5c-2,5.8-4,11.5-6,17.5c-0.8,2.5-2.5,5.1-2.6,7.1
					c-0.1,1.1,0.2,2.7,0.3,4c0.4,5.8,2.9,12.4-2.8,14c-3.7,1-7.9,1.3-11.6,1.2c-2.4-0.1-5.9-0.3-8.8-0.9c-4.7-0.9-5.9-3.6-5.1-8.8
					c0.2-1,0.6-2.1,0.7-3.2c0.1-1-0.1-2.1,0-3.1c0.2-1.1,0.7-1.8,0.6-2.8c-0.1-1.5-1.3-3.5-1.9-5.3c-2.7-8.2-5.5-15.5-7.8-24.1
					c0.4-4.9,5.9-5.4,10.7-7.3c3.1-1.3,7.1-2.2,9.8-4.1c0-1.4,0.3-2.1,0-3.4c-2.9-0.4-5.2-2.6-8.1-2.8c-3-0.2-5,2.2-7.9,2.6
					c0.4-3.2,3.2-4.8,6.2-6.6c1.3-0.8,3.4-2.1,4.6-2.4c3-0.5,6,1.1,8.5,1c3-0.1,6-1.9,8.7-0.7c3.7,1.6,7.3,5,9.4,7.1
					C261.4,76.7,261.4,77.3,261.4,77.8z M224.8,90.9c-0.8,5.6,0.4,11,2.4,15.4c0.3,0.6,0.1,1.6,1.2,1.5c0.1-5.5,0.4-9.9,1.9-15.7
					C228.7,91.1,226.9,90.7,224.8,90.9z M255.5,92.2c1.3,4.6,1.5,9.9,1.8,15.4c2.6-2,2.8-6.8,4-10.7c-0.3-1.8-0.1-3.7-0.1-6
					C259.4,90.6,256.9,90.9,255.5,92.2z M232.6,91.3c-0.4,1.9-0.8,5.2,0.4,6.6C235.4,96.5,237.4,91.7,232.6,91.3z M253,98
					c0.6-1.9,0.5-3.9,0.6-6.5C248.8,90.8,250,97.1,253,98z M237.4,93.6c-0.3,0.7-0.6,1.6-1,2.2c0.4,0.8,0.8,1.4,1.5,1.9
					c0.9-0.4,1.8-0.9,2.1-1.9c-0.8-0.4-0.4-1.9-1.2-2.4C238.3,93.7,237.8,93.2,237.4,93.6z M243.4,93.4c-1.3-0.4-1.3,0.6-1.6,1.6
					c-0.5,1.3,0,1.8,0.9,2.6C245.2,97.7,245.1,93.9,243.4,93.4z M246.1,96c1.1,3.5,4.8-0.1,2.5-2.5C246.6,93.2,246.5,94.8,246.1,96z
					 M243.3,106.9c-2.9-0.8-6.4-1.3-9.1-1.9c-0.9,2.2-1.1,4.6-1.6,7.1c-0.5,2.2-1.8,4.8-1.8,6.9c0.1,4.5,6.8,7.3,11.5,7.5
					c6.3,0.3,14.4-4,11.9-10c-0.2-2.9-1.5-7.6-2.6-11.3C248.6,105.7,245.4,106.1,243.3,106.9z M233.9,137.5c2.4,0.3,4-1.9,3.8-3.4
					c-0.2-1.2-2.2-2.7-3.1-4.1c-1.1-1.8-1.2-3.6-2.5-4.3c-0.1,0-0.2,0-0.3,0C230.9,130.1,231.6,134.4,233.9,137.5z M253,125.7
					c-1.2,1.7-1.9,4-3.1,5.7c-0.5,0.7-1.4,1.1-1.8,1.8c-0.8,1.2,0,3.5,1.3,4.1c3,1.4,4.4-3.6,4.6-6c0.1-1.8-0.4-3.5,0-5.3
					C253.6,126.1,253.5,125.6,253,125.7z"/>
			</g>
		</g>
	</g>
	<g>
		<path d="M194.5,169.8c0,3.6-1.4,5.9-4.2,6.9l5.7,8h-6.1l-5-7.1h-3.5v7.1h-5v-22.3h8.5c3.5,0,5.9,0.6,7.4,1.8
			C193.8,165.3,194.5,167.2,194.5,169.8z M188.5,172.5c0.6-0.6,0.9-1.4,0.9-2.6s-0.3-2-1-2.5c-0.6-0.4-1.8-0.7-3.4-0.7h-3.7v6.6h3.6
			C186.7,173.3,187.9,173,188.5,172.5z"/>
		<path d="M218.9,176.2c0,2.5-0.9,4.6-2.6,6.3c-1.7,1.7-3.9,2.6-6.5,2.6c-2.6,0-4.8-0.9-6.5-2.6c-1.7-1.7-2.6-3.8-2.6-6.3
			c0-2.5,0.9-4.6,2.6-6.3c1.7-1.7,3.9-2.6,6.5-2.6c2.6,0,4.8,0.9,6.5,2.6C218,171.6,218.9,173.7,218.9,176.2z M205.5,176.2
			c0,1.4,0.4,2.6,1.2,3.4c0.8,0.9,1.8,1.3,3.1,1.3c1.2,0,2.3-0.4,3.1-1.3c0.8-0.9,1.2-2,1.2-3.4c0-1.4-0.4-2.6-1.2-3.4
			c-0.8-0.9-1.8-1.3-3.1-1.3c-1.2,0-2.3,0.4-3.1,1.3C205.9,173.6,205.5,174.7,205.5,176.2z"/>
		<path d="M240.2,184.7h-4.5v-2.1c-1.2,1.6-2.8,2.3-4.6,2.3c-1.8,0-3.3-0.5-4.6-1.6c-1.2-1.1-1.9-2.5-1.9-4.2c0-1.8,0.6-3.1,1.9-3.9
			c1.3-0.9,3-1.3,5.2-1.3h3.6v-0.1c0-1.8-1-2.7-2.9-2.7c-0.8,0-1.7,0.2-2.6,0.5c-0.9,0.3-1.7,0.7-2.3,1.2l-2.1-3.1
			c2.3-1.6,4.8-2.5,7.7-2.5c2.1,0,3.8,0.5,5.1,1.6c1.3,1,2,2.7,2,5V184.7z M235.4,178.2v-0.8h-3c-1.9,0-2.9,0.6-2.9,1.8
			c0,0.6,0.2,1.1,0.7,1.4c0.5,0.3,1.1,0.5,2,0.5c0.9,0,1.6-0.3,2.3-0.8C235.1,179.8,235.4,179.1,235.4,178.2z"/>
		<path d="M256.8,171.8c-1.4,0-2.5,0.5-3.2,1.5c-0.7,1-1.1,2.3-1.1,4v7.4h-4.8v-17.2h4.8v2.3c0.6-0.7,1.4-1.3,2.3-1.8
			c0.9-0.5,1.9-0.7,2.8-0.8l0,4.5H256.8z"/>
		<path d="M284.7,184.7h-5l-5.8-17.2h5l3.4,10.4l3.4-10.4h4.6l3.4,10.4l3.4-10.4h5l-5.8,17.2h-5l-3.2-9.4L284.7,184.7z"/>
		<path d="M308.1,165.4c-0.5-0.5-0.8-1.2-0.8-2c0-0.8,0.3-1.5,0.8-2c0.5-0.5,1.2-0.8,2-0.8c0.8,0,1.5,0.3,2,0.8
			c0.5,0.5,0.8,1.2,0.8,2c0,0.8-0.3,1.5-0.8,2c-0.5,0.5-1.2,0.8-2,0.8C309.3,166.2,308.7,165.9,308.1,165.4z M312.5,184.7h-4.8
			v-17.2h4.8V184.7z"/>
		<path d="M326,171v7.7c0,0.7,0.2,1.2,0.5,1.6c0.3,0.4,0.7,0.6,1.2,0.6c0.9,0,1.7-0.4,2.3-1.2l1.8,3.4c-1.5,1.4-3.1,2-4.7,2
			c-1.7,0-3-0.5-4.2-1.6c-1.1-1.1-1.7-2.6-1.7-4.4V171h-2v-3.5h2v-5.1h4.8v5.1h4.2v3.5H326z"/>
		<path d="M342.3,175.5v9.3h-4.8V161h4.8v8.4c1.4-1.5,3.1-2.2,4.9-2.2s3.3,0.6,4.6,1.9c1.2,1.3,1.9,3,1.9,5.1v10.4h-4.8v-9.4
			c0-2.6-1-4-2.9-4c-1,0-1.8,0.3-2.5,1C342.7,173.1,342.3,174.1,342.3,175.5z"/>
		<path d="M381.5,176.6l5.7-14.2h5.4l-9,22.3h-4.2l-9-22.3h5.4L381.5,176.6z"/>
		<path d="M416.5,169.8c0,3.6-1.4,5.9-4.2,6.9l5.7,8h-6.1l-5-7.1h-3.5v7.1h-5v-22.3h8.5c3.5,0,5.9,0.6,7.4,1.8
			C415.8,165.3,416.5,167.2,416.5,169.8z M410.5,172.5c0.6-0.6,0.9-1.4,0.9-2.6s-0.3-2-1-2.5c-0.6-0.4-1.8-0.7-3.4-0.7h-3.7v6.6h3.6
			C408.7,173.3,409.9,173,410.5,172.5z"/>
		<path d="M443.4,181.7c-2.3,2.2-5,3.3-8.3,3.3c-3.3,0-6.1-1.1-8.3-3.3c-2.3-2.2-3.4-4.9-3.4-8.2c0-3.3,1.1-6,3.4-8.2
			c2.3-2.2,5-3.3,8.3-3.3c3.3,0,6.1,1.1,8.3,3.3c2.3,2.2,3.4,4.9,3.4,8.2C446.8,176.7,445.6,179.5,443.4,181.7z M441.7,173.5
			c0-2-0.6-3.7-1.9-5.1c-1.3-1.4-2.8-2.1-4.7-2.1c-1.9,0-3.4,0.7-4.7,2.1c-1.3,1.4-1.9,3.1-1.9,5.1c0,2,0.6,3.7,1.9,5.1
			c1.3,1.4,2.8,2.1,4.7,2.1c1.9,0,3.4-0.7,4.7-2.1C441,177.1,441.7,175.4,441.7,173.5z"/>
		<path d="M469.4,184.7l-2.1-4.8H458l-2.1,4.8h-5.3l9.6-22.3h4.8l9.6,22.3H469.4z M462.7,169.1l-2.8,6.5h5.6L462.7,169.1z"/>
		<path d="M498.6,169.8c0,3.6-1.4,5.9-4.2,6.9l5.7,8h-6.1l-5-7.1h-3.5v7.1h-5v-22.3h8.5c3.5,0,5.9,0.6,7.4,1.8
			C497.9,165.3,498.6,167.2,498.6,169.8z M492.6,172.5c0.6-0.6,0.9-1.4,0.9-2.6s-0.3-2-1-2.5c-0.6-0.4-1.8-0.7-3.4-0.7h-3.7v6.6h3.6
			C490.8,173.3,492,173,492.6,172.5z"/>
	</g>
</g>
</svg>