<?xml version="1.0" encoding="utf-8"?>
<!-- Generator: Adobe Illustrator 22.1.0, SVG Export Plug-In . SVG Version: 6.00 Build 0)  -->
<svg version="1.1" id="Layer_1" xmlns="http://www.w3.org/2000/svg"
	xmlns:xlink="http://www.w3.org/1999/xlink" x="0px" y="0px"
	viewBox="0 0 256.8 469" style="enable-background:new 0 0 256.8 469;" xml:space="preserve">
<style type="text/css">
	.st0{fill:#FFFFFF;}
	.st1{fill:url(#SVGID_1_);}
	.st2{fill:url(#SVGID_2_);}
	.st3{fill:url(#SVGID_3_);}
	.st4{fill:url(#SVGID_4_);}
	.st5{fill:url(#SVGID_5_);}
	.st6{fill:url(#SVGID_6_);}
	.st7{fill:url(#SVGID_7_);}
	.st8{fill:url(#SVGID_8_);}
	.st9{fill:url(#SVGID_9_);}
	.st10{fill:url(#SVGID_10_);}
	.st11{fill:url(#SVGID_11_);}
	.st12{fill:url(#SVGID_12_);}
	.st13{fill:url(#SVGID_13_);}
	.st14{fill:url(#SVGID_14_);}
	.st15{fill:url(#SVGID_15_);}
	.st16{fill:url(#SVGID_16_);}
	.st17{fill:url(#SVGID_17_);}
	.st18{fill:url(#SVGID_18_);}
	.st19{fill:url(#SVGID_19_);}
	.st20{fill:url(#SVGID_20_);}
	.st21{fill:url(#SVGID_21_);}
	.st22{fill:url(#SVGID_22_);}
	.st23{fill:url(#SVGID_23_);}
	.st24{fill:url(#SVGID_24_);}
	.st25{fill:none;stroke:#000000;stroke-width:2;stroke-miterlimit:10;}
	.st26{clip-path:url(#SVGID_26_);}
	.st27{fill:none;stroke:url(#SVGID_27_);stroke-miterlimit:10;}
	.st28{fill:none;stroke:url(#SVGID_28_);stroke-miterlimit:10;}
	.st29{clip-path:url(#SVGID_30_);}
	.st30{fill:url(#SVGID_31_);}
	.st31{fill:url(#SVGID_32_);}
</style>
<g>
	<defs>
		<rect id="SVGID_25_" x="-1.2" width="258" height="469"/>
	</defs>
	<clipPath id="SVGID_1_">
		<use xlink:href="#SVGID_25_"  style="overflow:visible;"/>
	</clipPath>
	<g style="clip-path:url(#SVGID_1_);">
		<g id="ShoSho_6_">
			<linearGradient id="SVGID_2_" gradientUnits="userSpaceOnUse" x1="256.663" y1="461.7646" x2="256.663" y2="7.3322">
				<stop  offset="0" style="stop-color:#FCB532"/>
				<stop  offset="1" style="stop-color:#F15A65"/>
			</linearGradient>
			<path style="fill:none;stroke:url(#SVGID_2_);stroke-miterlimit:10;" d="M322.5,15.4c-12.8,9.3-28.4,15.9-38.9,27.4
				c0.9,1.7,2.9,1.1,2.7-1.1c14.3-3.5,29.2-11,45-14.8c0.4,1.1,3.1-0.1,3.3,1.1c1.1-0.2,1.1-1.5,1.6-2.2c13.7-2.6,22.6,1.1,36.2,7.1
				c18.7,8.2,38.2,20.8,51.5,34.5c-13.8,3.6-27.8,6.9-38.9,13.2c18.1,0.6,36.6,1.2,58.1,3.3c21,20.8,39.7,46.9,49.3,77.3
				c-14-4.4-24.1-9.5-40.6-11c12.2,9.9,26.3,18.3,39.5,29.1c2.9,2.4,7.6,4.9,9.3,7.1c3.4,4.3,4.9,19.6,5.5,27.4
				c1.5,19.1-0.4,43.6-3.8,60.9c-11.4-7.6-20.1-17.9-35.1-21.9c10.2,14.6,19.8,31.6,27.4,49.9c-2.9,12.1-7.1,22.9-13.7,31.2
				c-4.9,11.7-11.2,22.1-19.7,30.2c-6.1-8.9-12.2-17.7-20.8-24.1c-0.5,12.2,11.6,27.4,7.1,41.7c-1.5,4.7-9.8,9.1-14.3,13.7
				c-5.4,5.6-13,12.9-20.3,16.5c-1.3-12.1-1.1-24.1-5.5-34c-4.9,15.8-7.6,33.7-13.7,48.2c-10.2,5.1-20.8,12.8-32.3,14.8
				c2.4-14,4.6-25.6,4.4-37.8c-7.5,13.2-16,29.3-25.2,41.7c-4.9,6.5-5.7,6.7-15.3,9.3c-10.6,2.9-21.7,7.3-32.9,6.6
				c1.8-4.1,4.8-3.4,7.1-4.9c16-10.4,30.5-27.3,26.9-52.6c-1.2-8.3-2.7-22.4-4.9-30.7c-0.8-3-2.5-4.8-2.2-7.1
				c0.6-4.8,7.6-11.3,9.9-15.3c3.2-5.8,6-13.9,9.9-20.3c3.7-6.1,8.3-10.1,15.4-3.3c3-8.8,2.4-22.4,2.7-35.6
				c5.1,1.3,8.5,4.3,13.7,5.5c3.2-10.4,4.6-22.5,5.5-31.8c4.5,1.7,8.1,4.3,12.6,6c4-8,2.3-18.9,3.8-28c4.8,1.3,8.7,3.3,12.6,5.5
				c-1.9-16.4-8.9-30.6-10.4-45.5c5,0.6,8.1,3.2,12.1,4.9c-9.9-30.3-25-56.9-62.5-57.6c-19.6-0.3-37.1-5.7-42.2-24.7
				c10.9-5.7,16.6-17.2,33.4-15.3c-2.2,7.5-10.9,8.5-14.8,14.3c7.9,2.7,16-0.1,23,1.1c11.2,1.9,20.3,11.2,28.5,18.1
				c7.7,6.5,14.4,13.2,20.8,19.2c-5-45.2-48.2-67.6-88.8-77.3c-14-3.4-33.3,9.9-49.9,10.4c-3.7-1.8-18.1-7.2-26.3-9.3
				c-17.4-4.5-30,1.9-45.5,8.2c-14.4,5.8-28.7,12.1-39.5,23c-8.8,9-19.2,28.9-20.8,43.9c3.9,0.2,4.4-4.2,6.6-6.6
				c7.1-7.9,18.9-16.9,29.1-23c4.3-2.6,7.7-6.1,12.6-6.6c7.3-0.7,17.1,1.5,25.2-0.5c-2.8-6.9-12.8-6.5-15.4-13.7
				c9.6-3.2,17.4,2.8,25.2,8.2c2,1.4,7.5,5.9,7.7,7.7c0.4,3.8-4.6,5.5-4.4,9.3c-7.9,8.7-21,13.1-35.6,13.7
				c-27.6,1.2-43.7,13.1-55.9,32.3c-1.3,8.4-7,15.1-9.3,24.1c5.3-0.4,7.1-4.2,12.1-4.9c-1.9,14.9-8.5,29.9-11.5,45.5
				c6.8,0.4,6.2-4.3,12.6-4.9c1.2,8.4,1.5,18,2.2,28c5-0.3,7.9-2.7,11.5-4.4c6.2,5.8,4.3,21.1,7.1,30.7c5.5-0.7,9-3.4,13.2-5.5
				c2.8,10,1.5,24.1,3.3,35.1c7.7-2.4,10-6.4,14.3,2.2c4.8,9.5,16.3,24.8,20.8,34.5c2.1,4.5,0,5.4-1.1,9.3c-3,10.7-6.3,25.2-6,36.7
				c0.6,28.9,15.9,40,35.6,52.6c-12-0.6-19.7-3.5-29.6-6c-11.1-2.8-16.3-2.9-21.9-11c-3-4.4-4.3-10.7-9.3-13.2
				c-2.9-7.3-5.4-15.1-11-19.7c-0.1-3.1-0.9-5.6-2.2-7.7c-3.1,12.7,1.6,23.7,2.7,38.9c-10.8-6.3-21.6-9.5-31.2-16.5
				c-5.6-13.7-11.7-33.4-13.2-48.8c-6.1,8.5-5.8,23.5-7.1,34C85.7,405,77.8,393,66.5,384.4c-3.7-14.1,2.1-32.4,7.7-45
				c-4.6,2.8-8.4,5-12.6,9.9c-5.5,6.4-8.5,20.8-16.5,8.8c-6-9-10.8-16.1-15.4-25.2c-1.1-2.3-1.2-5.6-2.7-8.2
				c-2.1-3.6-8.7-15.7-8.2-21.4c0.2-3.1,3-5.8,3.8-8.2c6.2-17.3,15.2-30.8,24.7-42.8c-15,4.2-25.1,13.3-35.6,21.9
				c-6.5-16.2-5.3-36.7-3.8-55.4c1.1-14,1.5-30.1,11.5-37.8c13.8-10.5,30.2-21.3,45.5-30.7c-15.6-0.6-28.5,6.3-43.3,11
				c10.6-31.4,29-55.1,48.8-77.3c15.9-1.9,37-2.3,53.2-3.8c1.7,1.3,4.9,2.5,7.7,1.1c-11.9-7.3-26-9.8-40.6-13.7
				c19-19.7,46.2-31.3,72.4-43.9c26.7,4,49.7,11.7,71.3,20.8c-10.2-13.2-27.4-19.3-41.1-29.1C231.1,5.5,285.4,5.1,322.5,15.4z"/>
			<linearGradient id="SVGID_3_" gradientUnits="userSpaceOnUse" x1="257.498" y1="416.2667" x2="257.498" y2="145.5137">
				<stop  offset="0" style="stop-color:#FCB532"/>
				<stop  offset="1" style="stop-color:#F15A65"/>
			</linearGradient>
			<path style="fill:none;stroke:url(#SVGID_3_);stroke-miterlimit:10;" d="M327.4,179.9c-9.9-1.7-18-10.1-29.6-9.3
				c-10.9,0.8-20.2,8-29.6,11.5c-2.7,11.8,6.3,16.6,15.4,19.2c6.4,1.8,13.9,3.9,21.9,7.1c16.3,6.7,44.2,10.1,37.3,35.1
				c-0.8,2.8-2.3,6.4-3.3,9.3c-7.4,21.8-14.9,42.9-22.5,65.2c-3.1,9.3-9.2,19.2-9.9,26.3c-0.4,4.2,0.8,9.9,1.1,14.8
				c1.4,21.6,10.8,46.1-10.4,52.1c-13.8,3.9-29.5,4.8-43.3,4.4c-8.8-0.3-22-1.3-32.9-3.3c-17.7-3.2-22.1-13.4-19.2-32.9
				c0.6-3.8,2.4-8,2.7-12.1c0.3-3.6-0.5-8,0-11.5c0.6-4.1,2.5-6.8,2.2-10.4c-0.5-5.6-4.9-12.9-7.1-19.7
				C190,295,179.8,268,171.2,235.8c1.4-18.2,22-20,40-27.4c11.7-4.8,26.6-8.2,36.7-15.4c-0.1-5.3,1.1-7.7,0-12.6
				c-10.7-1.4-19.4-9.6-30.2-10.4c-11.3-0.8-18.7,8.2-29.6,9.9c1.5-12,12-18,23-24.7c4.8-2.9,12.7-8,17-8.8
				c11.1-2,22.2,4.3,31.8,3.8c11.1-0.5,22.2-7.3,32.3-2.7c13.6,6.1,27.1,18.6,35.1,26.3C327.4,175.9,327.4,177.9,327.4,179.9z
				 M190.9,228.7c-2.9,20.9,1.3,41.1,8.8,57.6c1,2.2,0.4,6,4.4,5.5c0.5-20.4,1.4-36.9,7.1-58.7C205.7,229.6,198.9,228.1,190.9,228.7
				z M305.5,233.6c4.7,17.1,5.7,37.1,6.6,57.6c9.6-7.4,10.5-25.2,14.8-40c-1.2-6.7-0.3-13.7-0.5-22.5
				C319.9,227.6,310.6,228.5,305.5,233.6z M220,230.4c-1.5,7.1-2.8,19.5,1.6,24.7C230.7,249.5,238.2,231.6,220,230.4z M296.2,255
				c2.4-7.2,1.7-14.6,2.2-24.1C280.4,228.4,284.9,251.7,296.2,255z M238.1,238.6c-1.2,2.8-2.2,5.9-3.8,8.2c1.4,2.8,3.1,5.3,5.5,7.1
				c3.4-1.5,6.6-3.3,7.7-7.1c-3-1.4-1.7-7.1-4.4-8.8C241.2,239.3,239.6,237.3,238.1,238.6z M260.5,238c-4.8-1.4-4.7,2.3-6,6
				c-1.7,4.8-0.2,6.8,3.3,9.9C267.2,254.2,266.6,239.8,260.5,238z M270.4,247.9c4,13,17.8-0.5,9.3-9.3
				C272.2,237.2,272.1,243.4,270.4,247.9z M260,288.5c-10.7-3.1-24-4.9-34-7.1c-3.3,8.2-3.9,17-6,26.3c-1.9,8.3-6.7,17.8-6.6,25.8
				c0.3,16.6,25.3,27.1,42.8,28c23.6,1.2,53.8-15,44.4-37.3c-0.6-10.8-5.4-28.2-9.9-42.2C279.8,284.1,267.8,285.6,260,288.5z
				 M224.9,402.5c9.1,1.2,15-7,14.3-12.6c-0.6-4.6-8.2-10.1-11.5-15.4c-4-6.6-4.5-13.4-9.3-15.9c-0.4,0-0.7,0-1.1,0
				C213.6,374.9,216.2,391.1,224.9,402.5z M296.2,358.7c-4.4,6.4-7.3,15-11.5,21.4c-1.8,2.7-5.2,4.3-6.6,6.6
				c-2.8,4.6,0.1,13.1,4.9,15.4c11,5.1,16.6-13.4,17-22.5c0.3-6.7-1.3-13.2,0-19.7C298.3,359.8,298.2,358.3,296.2,358.7z"/>
		</g>
	</g>
</g>
</svg>